<svg xmlns="http://www.w3.org/2000/svg" viewBox="0 0 1000 420">
<defs>
  <radialGradient id="core" cx="50%" cy="50%" r="50%">
    <stop offset="0%" stop-color="#d97706" stop-opacity="0.7">
      <animate attributeName="stop-opacity" values="0.7;0.4;0.7" dur="4s" repeatCount="indefinite"/>
    </stop>
    <stop offset="40%" stop-color="#d97706" stop-opacity="0.15"/>
    <stop offset="100%" stop-color="#d97706" stop-opacity="0"/>
  </radialGradient>
  <radialGradient id="halo" cx="50%" cy="50%" r="50%">
    <stop offset="0%" stop-color="#8b5cf6" stop-opacity="0.05">
      <animate attributeName="stop-opacity" values="0.05;0.1;0.05" dur="6s" repeatCount="indefinite"/>
    </stop>
    <stop offset="100%" stop-color="#8b5cf6" stop-opacity="0"/>
  </radialGradient>
  <radialGradient id="nebula1" cx="30%" cy="40%" r="60%">
    <stop offset="0%" stop-color="#c4b5fd" stop-opacity="0.04"/>
    <stop offset="100%" stop-color="#c4b5fd" stop-opacity="0"/>
  </radialGradient>
  <radialGradient id="nebula2" cx="70%" cy="60%" r="50%">
    <stop offset="0%" stop-color="#a5f3fc" stop-opacity="0.03"/>
    <stop offset="100%" stop-color="#a5f3fc" stop-opacity="0"/>
  </radialGradient>
  <linearGradient id="titleGrad" x1="0%" y1="0%" x2="100%" y2="0%">
    <stop offset="0%" stop-color="#5b21b6"/>
    <stop offset="35%" stop-color="#7c3aed"/>
    <stop offset="50%" stop-color="#d97706"/>
    <stop offset="65%" stop-color="#7c3aed"/>
    <stop offset="100%" stop-color="#5b21b6"/>
  </linearGradient>
  <filter id="softglow"><feGaussianBlur stdDeviation="3" result="blur"/><feComposite in="SourceGraphic" in2="blur" operator="over"/></filter>
  <filter id="bigblur"><feGaussianBlur stdDeviation="8"/></filter>
  <filter id="midblur"><feGaussianBlur stdDeviation="4"/></filter>
  <g id="branch"><line x1="0" y1="0" x2="30" y2="-18" stroke="#8b5cf6" stroke-width="0.6" opacity="0.2"/><line x1="30" y1="-18" x2="52" y2="-28" stroke="#8b5cf6" stroke-width="0.4" opacity="0.12"/><line x1="30" y1="-18" x2="55" y2="-10" stroke="#8b5cf6" stroke-width="0.4" opacity="0.12"/><line x1="52" y1="-28" x2="68" y2="-38" stroke="#8b5cf6" stroke-width="0.3" opacity="0.08"/><line x1="52" y1="-28" x2="72" y2="-22" stroke="#8b5cf6" stroke-width="0.3" opacity="0.08"/><line x1="55" y1="-10" x2="75" y2="-16" stroke="#8b5cf6" stroke-width="0.3" opacity="0.08"/><line x1="55" y1="-10" x2="72" y2="2" stroke="#8b5cf6" stroke-width="0.3" opacity="0.08"/></g>
  <g id="branch2"><line x1="0" y1="0" x2="-28" y2="-20" stroke="#0891b2" stroke-width="0.6" opacity="0.18"/><line x1="-28" y1="-20" x2="-50" y2="-32" stroke="#0891b2" stroke-width="0.4" opacity="0.1"/><line x1="-28" y1="-20" x2="-52" y2="-12" stroke="#0891b2" stroke-width="0.4" opacity="0.1"/><line x1="-50" y1="-32" x2="-66" y2="-42" stroke="#0891b2" stroke-width="0.3" opacity="0.06"/><line x1="-50" y1="-32" x2="-70" y2="-26" stroke="#0891b2" stroke-width="0.3" opacity="0.06"/></g>
  <symbol id="sub-zf" viewBox="-10 -10 20 20"><path d="M-4,-6 C-2,-8 2,-8 4,-6 L6,-2 C8,0 8,2 6,4 L2,7 C0,8 -2,7 -4,5 L-6,2 C-8,0 -7,-3 -4,-6Z" fill="none" stroke="#059669" stroke-width="1.2" opacity="0.8"/><circle cx="0" cy="0" r="1.5" fill="#059669" opacity="0.6"/></symbol>
  <symbol id="sub-rd" viewBox="-10 -10 20 20"><circle cx="-3" cy="-3" r="2.5" fill="none" stroke="#2563eb" stroke-width="0.8" opacity="0.6"/><circle cx="3" cy="3" r="2.5" fill="none" stroke="#2563eb" stroke-width="0.8" opacity="0.6"/><circle cx="3" cy="-3" r="1.8" fill="none" stroke="#2563eb" stroke-width="0.6" opacity="0.4"/><circle cx="-3" cy="3" r="1.8" fill="none" stroke="#2563eb" stroke-width="0.6" opacity="0.4"/></symbol>
  <symbol id="sub-sn" viewBox="-10 -10 20 20"><polyline points="-7,4 -4,-3 -1,2 2,-5 5,1 8,-4" fill="none" stroke="#7c3aed" stroke-width="1.2" opacity="0.8"/><circle cx="2" cy="-5" r="1.2" fill="#7c3aed" opacity="0.5"/></symbol>
  <symbol id="sub-mk" viewBox="-10 -10 20 20"><polyline points="-7,5 -4,2 -1,-3 2,0 5,-6 8,-2" fill="none" stroke="#d97706" stroke-width="1" opacity="0.7"/><polyline points="-7,6 -4,3 -1,-2 2,1 5,-5 8,-1" fill="none" stroke="#d97706" stroke-width="0.5" opacity="0.3"/></symbol>
  <symbol id="sub-nx" viewBox="-10 -10 20 20"><rect x="-5" y="-5" width="10" height="10" fill="none" stroke="#dc2626" stroke-width="0.8" opacity="0.6" rx="1"/><line x1="-5" y1="-5" x2="5" y2="5" stroke="#dc2626" stroke-width="0.6" opacity="0.4"/><line x1="5" y1="-5" x2="-5" y2="5" stroke="#dc2626" stroke-width="0.6" opacity="0.4"/><circle cx="0" cy="0" r="1.5" fill="#dc2626" opacity="0.5"/></symbol>
  <symbol id="sub-ai" viewBox="-10 -10 20 20"><circle cx="0" cy="-5" r="2.5" fill="none" stroke="#db2777" stroke-width="0.8" opacity="0.6"/><circle cx="0" cy="5" r="2.5" fill="none" stroke="#db2777" stroke-width="0.8" opacity="0.6"/><line x1="0" y1="-2.5" x2="0" y2="2.5" stroke="#db2777" stroke-width="1" opacity="0.7"/><line x1="-2" y1="0" x2="2" y2="0" stroke="#db2777" stroke-width="0.6" opacity="0.4"/></symbol>
</defs>
<rect width="1000" height="420" fill="#fafafa"/>
<ellipse cx="500" cy="210" rx="450" ry="200" fill="url(#nebula1)"/>
<ellipse cx="500" cy="210" rx="380" ry="180" fill="url(#nebula2)"/>
<g fill="#a78bfa" opacity="0.15"><circle cx="42" cy="18" r="0.7"/><circle cx="155" cy="22" r="0.8"/><circle cx="412" cy="12" r="0.9"/><circle cx="688" cy="18" r="0.8"/><circle cx="948" cy="32" r="0.8"/><circle cx="65" cy="380" r="0.6"/><circle cx="935" cy="385" r="0.8"/></g>
<g opacity="0.4" filter="url(#midblur)">
  <path d="M500,210 Q580,170 650,140 Q720,115 790,110 Q850,108 900,125" fill="none" stroke="#8b5cf6" stroke-width="1.5" opacity="0.12"><animate attributeName="opacity" values="0.12;0.22;0.12" dur="8s" repeatCount="indefinite"/></path>
  <path d="M500,210 Q420,250 350,280 Q280,305 210,310 Q150,312 100,295" fill="none" stroke="#8b5cf6" stroke-width="1.5" opacity="0.12"><animate attributeName="opacity" values="0.12;0.22;0.12" dur="8s" repeatCount="indefinite"/></path>
  <path d="M500,210 Q430,165 370,130 Q310,100 240,95 Q180,92 120,110" fill="none" stroke="#0891b2" stroke-width="1.2" opacity="0.1"><animate attributeName="opacity" values="0.1;0.2;0.1" dur="8s" begin="2s" repeatCount="indefinite"/></path>
  <path d="M500,210 Q570,255 630,290 Q690,320 760,325 Q820,328 880,310" fill="none" stroke="#0891b2" stroke-width="1.2" opacity="0.1"><animate attributeName="opacity" values="0.1;0.2;0.1" dur="8s" begin="2s" repeatCount="indefinite"/></path>
</g>
<g><use href="#branch" transform="translate(530,195) rotate(-15)"/><use href="#branch" transform="translate(540,220) rotate(10)"/><use href="#branch" transform="translate(525,235) rotate(30)"/><use href="#branch" transform="translate(535,185) rotate(-35)"/><use href="#branch2" transform="translate(470,195) rotate(15)"/><use href="#branch2" transform="translate(460,220) rotate(-10)"/><use href="#branch2" transform="translate(475,235) rotate(-30)"/><use href="#branch2" transform="translate(465,185) rotate(35)"/><use href="#branch" transform="translate(580,170) rotate(-40) scale(1.3)"/><use href="#branch2" transform="translate(420,170) rotate(40) scale(1.3)"/><use href="#branch" transform="translate(570,255) rotate(45) scale(1.2)"/><use href="#branch2" transform="translate(430,255) rotate(-45) scale(1.2)"/></g>
<g fill="none" stroke-width="0.5" opacity="0.1"><ellipse cx="500" cy="210" rx="80" ry="35" stroke="#a78bfa" transform="rotate(-8,500,210)"><animate attributeName="rx" values="80;82;80" dur="6s" repeatCount="indefinite"/></ellipse><ellipse cx="500" cy="210" rx="130" ry="55" stroke="#67e8f9" transform="rotate(5,500,210)"><animate attributeName="rx" values="130;133;130" dur="7s" repeatCount="indefinite"/></ellipse><ellipse cx="500" cy="210" rx="185" ry="78" stroke="#a78bfa" transform="rotate(-3,500,210)" opacity="0.06"><animate attributeName="rx" values="185;188;185" dur="8s" repeatCount="indefinite"/></ellipse></g>
<ellipse cx="500" cy="210" rx="60" ry="60" fill="url(#halo)" filter="url(#bigblur)"/>
<ellipse cx="500" cy="210" rx="28" ry="28" fill="url(#core)" filter="url(#midblur)"/>
<circle cx="500" cy="210" r="10" fill="#d97706" opacity="0.5"><animate attributeName="r" values="10;12;10" dur="4s" repeatCount="indefinite"/><animate attributeName="opacity" values="0.5;0.7;0.5" dur="4s" repeatCount="indefinite"/></circle>
<circle cx="500" cy="210" r="4" fill="#92400e" opacity="0.6"/>
<!-- Substrates -->
<g transform="translate(500,130)"><animateTransform attributeName="transform" type="translate" values="500,128;502,132;500,128" dur="5s" repeatCount="indefinite"/><use href="#sub-zf" width="22" height="22" x="-11" y="-11"/><circle cx="0" cy="0" r="14" fill="none" stroke="#059669" stroke-width="0.4" opacity="0.3"/><text x="0" y="22" text-anchor="middle" font-family="monospace" font-size="8" fill="#059669" opacity="0.7">ZF 1.043</text><line x1="0" y1="14" x2="0" y2="68" stroke="#059669" stroke-width="0.4" opacity="0.1" stroke-dasharray="3,3"><animate attributeName="stroke-dashoffset" values="0;6" dur="2s" repeatCount="indefinite"/></line></g>
<g transform="translate(640,155)"><animateTransform attributeName="transform" type="translate" values="640,153;643,157;640,153" dur="5.5s" begin="0.8s" repeatCount="indefinite"/><use href="#sub-rd" width="22" height="22" x="-11" y="-11"/><circle cx="0" cy="0" r="14" fill="none" stroke="#2563eb" stroke-width="0.4" opacity="0.3"/><text x="0" y="22" text-anchor="middle" font-family="monospace" font-size="8" fill="#2563eb" opacity="0.7">RD 0.865</text><line x1="-10" y1="10" x2="-128" y2="45" stroke="#2563eb" stroke-width="0.4" opacity="0.1" stroke-dasharray="3,3"><animate attributeName="stroke-dashoffset" values="0;6" dur="2.2s" repeatCount="indefinite"/></line></g>
<g transform="translate(650,275)"><animateTransform attributeName="transform" type="translate" values="650,273;653,277;650,273" dur="4.8s" begin="1.6s" repeatCount="indefinite"/><use href="#sub-sn" width="22" height="22" x="-11" y="-11"/><circle cx="0" cy="0" r="14" fill="none" stroke="#7c3aed" stroke-width="0.4" opacity="0.3"/><text x="0" y="22" text-anchor="middle" font-family="monospace" font-size="8" fill="#7c3aed" opacity="0.7">SN 0.950</text><line x1="-10" y1="-10" x2="-138" y2="-55" stroke="#7c3aed" stroke-width="0.4" opacity="0.1" stroke-dasharray="3,3"><animate attributeName="stroke-dashoffset" values="0;6" dur="2.4s" repeatCount="indefinite"/></line></g>
<g transform="translate(500,295)"><animateTransform attributeName="transform" type="translate" values="500,293;498,297;500,293" dur="5.2s" begin="2.4s" repeatCount="indefinite"/><use href="#sub-mk" width="22" height="22" x="-11" y="-11"/><circle cx="0" cy="0" r="14" fill="none" stroke="#d97706" stroke-width="0.4" opacity="0.3"/><text x="0" y="22" text-anchor="middle" font-family="monospace" font-size="8" fill="#d97706" opacity="0.7">MK 1.081</text><line x1="0" y1="-14" x2="0" y2="-73" stroke="#d97706" stroke-width="0.4" opacity="0.1" stroke-dasharray="3,3"><animate attributeName="stroke-dashoffset" values="0;6" dur="2s" repeatCount="indefinite"/></line></g>
<g transform="translate(350,275)"><animateTransform attributeName="transform" type="translate" values="350,273;347,277;350,273" dur="5.7s" begin="3.2s" repeatCount="indefinite"/><use href="#sub-nx" width="22" height="22" x="-11" y="-11"/><circle cx="0" cy="0" r="14" fill="none" stroke="#dc2626" stroke-width="0.4" opacity="0.3"/><text x="0" y="22" text-anchor="middle" font-family="monospace" font-size="8" fill="#dc2626" opacity="0.7">NX 1.030</text><line x1="10" y1="-10" x2="138" y2="-55" stroke="#dc2626" stroke-width="0.4" opacity="0.1" stroke-dasharray="3,3"><animate attributeName="stroke-dashoffset" values="0;6" dur="2.6s" repeatCount="indefinite"/></line></g>
<g transform="translate(360,155)"><animateTransform attributeName="transform" type="translate" values="360,153;357,157;360,153" dur="4.5s" begin="4s" repeatCount="indefinite"/><use href="#sub-ai" width="22" height="22" x="-11" y="-11"/><circle cx="0" cy="0" r="14" fill="none" stroke="#db2777" stroke-width="0.4" opacity="0.3"/><text x="0" y="22" text-anchor="middle" font-family="monospace" font-size="8" fill="#db2777" opacity="0.7">AI 1.059</text><line x1="10" y1="10" x2="128" y2="45" stroke="#db2777" stroke-width="0.4" opacity="0.1" stroke-dasharray="3,3"><animate attributeName="stroke-dashoffset" values="0;6" dur="1.8s" repeatCount="indefinite"/></line></g>
<!-- Particles -->
<g><circle r="1.5" fill="#059669" opacity="0.7"><animateMotion dur="3s" repeatCount="indefinite" path="M500,142 L500,198"/><animate attributeName="opacity" values="0.7;0.15;0.7" dur="3s" repeatCount="indefinite"/></circle><circle r="1.5" fill="#2563eb" opacity="0.7"><animateMotion dur="3.5s" repeatCount="indefinite" path="M629,165 L512,200"/><animate attributeName="opacity" values="0.7;0.15;0.7" dur="3.5s" repeatCount="indefinite"/></circle><circle r="1.5" fill="#7c3aed" opacity="0.7"><animateMotion dur="3.2s" repeatCount="indefinite" path="M640,265 L512,220"/><animate attributeName="opacity" values="0.7;0.15;0.7" dur="3.2s" repeatCount="indefinite"/></circle><circle r="1.5" fill="#d97706" opacity="0.7"><animateMotion dur="2.8s" repeatCount="indefinite" path="M500,281 L500,222"/><animate attributeName="opacity" values="0.7;0.15;0.7" dur="2.8s" repeatCount="indefinite"/></circle><circle r="1.5" fill="#dc2626" opacity="0.7"><animateMotion dur="3.8s" repeatCount="indefinite" path="M360,265 L488,220"/><animate attributeName="opacity" values="0.7;0.15;0.7" dur="3.8s" repeatCount="indefinite"/></circle><circle r="1.5" fill="#db2777" opacity="0.7"><animateMotion dur="3.3s" repeatCount="indefinite" path="M370,165 L488,200"/><animate attributeName="opacity" values="0.7;0.15;0.7" dur="3.3s" repeatCount="indefinite"/></circle></g>
<text x="500" y="207" text-anchor="middle" font-family="Georgia, serif" font-size="18" font-weight="bold" fill="#92400e" filter="url(#midblur)" opacity="0.4">gamma = 1.0</text>
<text x="500" y="207" text-anchor="middle" font-family="Georgia, serif" font-size="18" font-weight="bold" fill="#92400e" opacity="0.8"><animate attributeName="opacity" values="0.8;0.55;0.8" dur="4s" repeatCount="indefinite"/>gamma = 1.0</text>
<text x="500" y="38" text-anchor="middle" font-family="monospace" font-size="32" fill="url(#titleGrad)" letter-spacing="10" font-weight="bold">NEOSYNAPTEX</text>
<text x="500" y="58" text-anchor="middle" font-family="monospace" font-size="10" fill="#64748b" letter-spacing="3">NFI INTEGRATING MIRROR LAYER</text>
<line x1="340" y1="68" x2="660" y2="68" stroke="#8b5cf6" stroke-width="0.5" opacity="0.15"/>
<text x="500" y="375" text-anchor="middle" font-family="monospace" font-size="9" fill="#94a3b8">6 substrates | 8273 documents | p = 0.005 | 55/55 tests</text>
<text x="500" y="400" text-anchor="middle" font-family="monospace" font-size="8" fill="#94a3b8">Yaroslav Vasylenko | neuron7xLab | Poltava, Ukraine</text>
<g opacity="0.06" stroke="#8b5cf6" stroke-width="0.5" fill="none"><path d="M0,0 L40,0 L40,3 M0,0 L0,40 L3,40"/><path d="M5,5 L30,5 L30,8 M5,5 L5,30 L8,30"/><path d="M1000,0 L960,0 L960,3 M1000,0 L1000,40 L997,40"/><path d="M995,5 L970,5 L970,8 M995,5 L995,30 L992,30"/><path d="M0,420 L40,420 L40,417 M0,420 L0,380 L3,380"/><path d="M5,415 L30,415 L30,412 M5,415 L5,390 L8,390"/><path d="M1000,420 L960,420 L960,417 M1000,420 L1000,380 L997,380"/><path d="M995,415 L970,415 L970,412 M995,415 L995,390 L992,390"/></g>
<line x1="500" y1="75" x2="500" y2="360" stroke="#8b5cf6" stroke-width="0.3" opacity="0.03" stroke-dasharray="1,4"/>
</svg>
